<?xml version="1.0" encoding="utf-8"?>
<?xml-stylesheet type="text/xsl" href="rss1.xsl"?>
<rss version="2.0" xmlns:atom="http://www.w3.org/2005/Atom" xmlns:content="http://purl.org/rss/1.0/modules/content/" xmlns:dc="http://purl.org/dc/elements/1.1/" xmlns:media="http://search.yahoo.com/mrss/">
<channel>
 <title>Getty</title>
 <link>http://www.gettyimg.com/</link>
 <atom:link href="http://www.gettyimg.com/" rel="self" type="application/rss+xml" />

 
                <item>
                <title><![CDATA[【SD】DVD - 2NE1 - CRUSH (Japanese Ver.) (Clean) (VOB)]]></title>
                <link><![CDATA[https://sharemania.us/threads/2ne1-crush-japanese-ver-clean-vob.237182/]]></link>
                <description><![CDATA[<article>
<blockquote class="messageText SelectQuoteContainer ugc baseHtml">
<div style="text-align: center"><img src="https://i.vgy.me/eXih7M.png" class="bbCodeImage LbImage" alt="[​IMG]" data-url="https://i.vgy.me/eXih7M.png" style=""> <br>
<br>
<div class="ToggleTriggerAnchor bbCodeSpoilerContainer">
<button type="button" class="button bbCodeSpoilerButton ToggleTrigger Tooltip JsOnly" data-target="> .SpoilerTarget"><span>Spoiler: <span class="SpoilerTitle">MediaInfo</span></span></button>
<div class="SpoilerTarget bbCodeSpoilerText">Format : MPEG-PS<br>
File size : 232 MiB<br>
Duration : 3 min 23 s<br>
Overall bit rate mode : Variable<br>
Overall bit rate : 9 576 kb/s<br>
Frame rate : 29.970 FPS<br>
<br>
Video<br>
ID : 224 (0xE0)<br>
Format : MPEG Video<br>
Format version : Version 2<br>
Format profile : Main@Main<br>
Format settings : CustomMatrix / BVOP<br>
Format settings, BVOP : Yes<br>
Format settings, Matrix : Custom<br>
Format settings, GOP : Variable<br>
Format settings, picture structure : Frame<br>
Duration : 3 min 23 s<br>
Bit rate mode : Variable<br>
Bit rate : 7 849 kb/s<br>
Maximum bit rate : 8 200 kb/s<br>
Width : 720 pixels<br>
Height : 480 pixels<br>
Display aspect ratio : 16:9<br>
Frame rate : 29.970 (30000/1001) FPS<br>
Standard : NTSC<br>
Color space : YUV<br>
Chroma subsampling : 4:2:0<br>
Bit depth : 8 bits<br>
Scan type : Interlaced<br>
Scan order : Top Field First<br>
Compression mode : Lossy<br>
Bits/(Pixel*Frame) : 0.758<br>
Time code of first frame : 01:00:00:00<br>
Time code source : Group of pictures header<br>
GOP, Open/Closed : Open<br>
GOP, Open/Closed of first frame : Closed<br>
Stream size : 190 MiB (82%)<br>
<br>
Audio<br>
ID : 189 (0xBD)-160 (0xA0)<br>
Format : PCM<br>
Format settings : Big / Signed<br>
Muxing mode : DVD-Video<br>
Duration : 3 min 23 s<br>
Bit rate mode : Constant<br>
Bit rate : 1 536 kb/s<br>
Channel(s) : 2 channels<br>
Sampling rate : 48.0 kHz<br>
Bit depth : 16 bits<br>
Stream size : 37.2 MiB (16%)<div style="text-align: center">​</div></div>
</div><div style="text-align: center">​</div>
<div class="bbCodeBlock bbCodeVfcHH HiddenContent">
<div class="attribution type">Hidden Content:</div>
<blockquote>You must either reply or click 'Like' to see the hidden information contained here.</blockquote>
</div></div>
<div class="messageTextEndMarker">&nbsp;</div>
</blockquote>
</article>]]></description>
                <author><![CDATA[2NE1]]></author>
                </item>

                
                <item>
                <title><![CDATA[【Requests】[REQ AUD] - Avril lavigne The Best Damn Thing Tour]]></title>
                <link><![CDATA[https://sharemania.us/threads/avril-lavigne-the-best-damn-thing-tour.237181/]]></link>
                <description><![CDATA[<article>
<blockquote class="messageText SelectQuoteContainer ugc baseHtml">
I want the entire dvd-audio from this tour please??
<div class="messageTextEndMarker">&nbsp;</div>
</blockquote>
</article>]]></description>
                <author><![CDATA[brendo098]]></author>
                </item>

                </channel></rss>